{
	"asset":{
		"generator":"Khronos glTF Blender I/O v5.0.21",
		"version":"2.0"
	},
	"scene":0,
	"scenes":[
		{
			"name":"Scene",
			"nodes":[
				0,
				1,
				2,
				3,
				4
			]
		}
	],
	"nodes":[
		{
			"mesh":0,
			"name":"Cylinder"
		},
		{
			"mesh":1,
			"name":"Cube.003",
			"scale":[
				3.90387225151062,
				1.2790124416351318,
				3.90387225151062
			],
			"translation":[
				-3.6098999977111816,
				1.614955186843872,
				0
			]
		},
		{
			"mesh":2,
			"name":"Cube.054",
			"scale":[
				0.7593795657157898,
				0.7593795657157898,
				0.7593795657157898
			],
			"translation":[
				-0.8442105650901794,
				6.489511013031006,
				0
			]
		},
		{
			"mesh":3,
			"name":"Text",
			"rotation":[
				0.5,
				0.5,
				-0.5,
				0.5
			],
			"scale":[
				0.5576536655426025,
				0.5576536655426025,
				0.5576536655426025
			],
			"translation":[
				-0.1958329826593399,
				4.215400695800781,
				0.7831940054893494
			]
		},
		{
			"mesh":4,
			"name":"Text.001",
			"rotation":[
				0.5,
				0.5,
				-0.5,
				0.5
			],
			"scale":[
				0.5576536655426025,
				0.5576536655426025,
				0.5576536655426025
			],
			"translation":[
				7.976896286010742,
				3.621518135070801,
				0.49187755584716797
			]
		}
	],
	"materials":[
		{
			"doubleSided":true,
			"name":"Material",
			"pbrMetallicRoughness":{
				"metallicFactor":0,
				"roughnessFactor":0.625
			}
		},
		{
			"doubleSided":true,
			"name":"Material.003",
			"pbrMetallicRoughness":{
				"metallicFactor":0,
				"roughnessFactor":0.5
			}
		},
		{
			"doubleSided":true,
			"name":"Material.004",
			"pbrMetallicRoughness":{
				"metallicFactor":0,
				"roughnessFactor":0.6127272844314575
			}
		},
		{
			"doubleSided":true,
			"name":"Material.002",
			"pbrMetallicRoughness":{
				"metallicFactor":0,
				"roughnessFactor":0.625
			}
		},
		{
			"doubleSided":true,
			"name":"Material.001",
			"pbrMetallicRoughness":{
				"metallicFactor":0,
				"roughnessFactor":0.5
			}
		}
	],
	"meshes":[
		{
			"name":"Cylinder",
			"primitives":[
				{
					"attributes":{
						"POSITION":0,
						"NORMAL":1,
						"TEXCOORD_0":2
					},
					"indices":3,
					"material":0
				}
			]
		},
		{
			"name":"Cube.010",
			"primitives":[
				{
					"attributes":{
						"POSITION":4,
						"NORMAL":5,
						"TEXCOORD_0":6
					},
					"indices":7,
					"material":1
				},
				{
					"attributes":{
						"POSITION":8,
						"NORMAL":9,
						"TEXCOORD_0":10
					},
					"indices":11,
					"material":2
				}
			]
		},
		{
			"name":"Cube.061",
			"primitives":[
				{
					"attributes":{
						"POSITION":12,
						"NORMAL":13,
						"TEXCOORD_0":14
					},
					"indices":15,
					"material":3
				}
			]
		},
		{
			"name":"Text",
			"primitives":[
				{
					"attributes":{
						"POSITION":16,
						"NORMAL":17,
						"TEXCOORD_0":18
					},
					"indices":19,
					"material":4
				}
			]
		},
		{
			"name":"Text.001",
			"primitives":[
				{
					"attributes":{
						"POSITION":20,
						"NORMAL":21,
						"TEXCOORD_0":22
					},
					"indices":23,
					"material":4
				}
			]
		}
	],
	"accessors":[
		{
			"bufferView":0,
			"componentType":5126,
			"count":5779,
			"max":[
				8.063936233520508,
				4.512279987335205,
				4.97901725769043
			],
			"min":[
				-8.957442283630371,
				-0.445076584815979,
				-4.97901725769043
			],
			"type":"VEC3"
		},
		{
			"bufferView":1,
			"componentType":5126,
			"count":5779,
			"type":"VEC3"
		},
		{
			"bufferView":2,
			"componentType":5126,
			"count":5779,
			"type":"VEC2"
		},
		{
			"bufferView":3,
			"componentType":5123,
			"count":17517,
			"type":"SCALAR"
		},
		{
			"bufferView":4,
			"componentType":5126,
			"count":145,
			"max":[
				0.8065637350082397,
				6.795858383178711,
				0.8065637350082397
			],
			"min":[
				-0.8065637350082397,
				-0.6117457151412964,
				-0.8065637350082397
			],
			"type":"VEC3"
		},
		{
			"bufferView":5,
			"componentType":5126,
			"count":145,
			"type":"VEC3"
		},
		{
			"bufferView":6,
			"componentType":5126,
			"count":145,
			"type":"VEC2"
		},
		{
			"bufferView":7,
			"componentType":5123,
			"count":384,
			"type":"SCALAR"
		},
		{
			"bufferView":8,
			"componentType":5126,
			"count":757,
			"max":[
				0.9665906429290771,
				8.294978141784668,
				0.9665905833244324
			],
			"min":[
				-0.9665905833244324,
				2.6260342597961426,
				-0.9665905833244324
			],
			"type":"VEC3"
		},
		{
			"bufferView":9,
			"componentType":5126,
			"count":757,
			"type":"VEC3"
		},
		{
			"bufferView":10,
			"componentType":5126,
			"count":757,
			"type":"VEC2"
		},
		{
			"bufferView":11,
			"componentType":5123,
			"count":1536,
			"type":"SCALAR"
		},
		{
			"bufferView":12,
			"componentType":5126,
			"count":6450,
			"max":[
				0.8511806130409241,
				5.101397514343262,
				4.4542741775512695
			],
			"min":[
				-8.095649719238281,
				-7.57059383392334,
				-4.45643424987793
			],
			"type":"VEC3"
		},
		{
			"bufferView":13,
			"componentType":5126,
			"count":6450,
			"type":"VEC3"
		},
		{
			"bufferView":14,
			"componentType":5126,
			"count":6450,
			"type":"VEC2"
		},
		{
			"bufferView":15,
			"componentType":5123,
			"count":12540,
			"type":"SCALAR"
		},
		{
			"bufferView":16,
			"componentType":5126,
			"count":19832,
			"max":[
				2.47324800491333,
				0.03999999910593033,
				0.3632734417915344
			],
			"min":[
				0.01812000945210457,
				-0.03999999910593033,
				-0.6184713840484619
			],
			"type":"VEC3"
		},
		{
			"bufferView":17,
			"componentType":5126,
			"count":19832,
			"type":"VEC3"
		},
		{
			"bufferView":18,
			"componentType":5126,
			"count":19832,
			"type":"VEC2"
		},
		{
			"bufferView":19,
			"componentType":5123,
			"count":59328,
			"type":"SCALAR"
		},
		{
			"bufferView":20,
			"componentType":5126,
			"count":11224,
			"max":[
				1.392014503479004,
				0.03999999910593033,
				0.2686710059642792
			],
			"min":[
				0.020958084613084793,
				-0.03999999910593033,
				-0.6240019798278809
			],
			"type":"VEC3"
		},
		{
			"bufferView":21,
			"componentType":5126,
			"count":11224,
			"type":"VEC3"
		},
		{
			"bufferView":22,
			"componentType":5126,
			"count":11224,
			"type":"VEC2"
		},
		{
			"bufferView":23,
			"componentType":5123,
			"count":33540,
			"type":"SCALAR"
		}
	],
	"bufferViews":[
		{
			"buffer":0,
			"byteLength":69348,
			"byteOffset":0,
			"target":34962
		},
		{
			"buffer":0,
			"byteLength":69348,
			"byteOffset":69348,
			"target":34962
		},
		{
			"buffer":0,
			"byteLength":46232,
			"byteOffset":138696,
			"target":34962
		},
		{
			"buffer":0,
			"byteLength":35034,
			"byteOffset":184928,
			"target":34963
		},
		{
			"buffer":0,
			"byteLength":1740,
			"byteOffset":219964,
			"target":34962
		},
		{
			"buffer":0,
			"byteLength":1740,
			"byteOffset":221704,
			"target":34962
		},
		{
			"buffer":0,
			"byteLength":1160,
			"byteOffset":223444,
			"target":34962
		},
		{
			"buffer":0,
			"byteLength":768,
			"byteOffset":224604,
			"target":34963
		},
		{
			"buffer":0,
			"byteLength":9084,
			"byteOffset":225372,
			"target":34962
		},
		{
			"buffer":0,
			"byteLength":9084,
			"byteOffset":234456,
			"target":34962
		},
		{
			"buffer":0,
			"byteLength":6056,
			"byteOffset":243540,
			"target":34962
		},
		{
			"buffer":0,
			"byteLength":3072,
			"byteOffset":249596,
			"target":34963
		},
		{
			"buffer":0,
			"byteLength":77400,
			"byteOffset":252668,
			"target":34962
		},
		{
			"buffer":0,
			"byteLength":77400,
			"byteOffset":330068,
			"target":34962
		},
		{
			"buffer":0,
			"byteLength":51600,
			"byteOffset":407468,
			"target":34962
		},
		{
			"buffer":0,
			"byteLength":25080,
			"byteOffset":459068,
			"target":34963
		},
		{
			"buffer":0,
			"byteLength":237984,
			"byteOffset":484148,
			"target":34962
		},
		{
			"buffer":0,
			"byteLength":237984,
			"byteOffset":722132,
			"target":34962
		},
		{
			"buffer":0,
			"byteLength":158656,
			"byteOffset":960116,
			"target":34962
		},
		{
			"buffer":0,
			"byteLength":118656,
			"byteOffset":1118772,
			"target":34963
		},
		{
			"buffer":0,
			"byteLength":134688,
			"byteOffset":1237428,
			"target":34962
		},
		{
			"buffer":0,
			"byteLength":134688,
			"byteOffset":1372116,
			"target":34962
		},
		{
			"buffer":0,
			"byteLength":89792,
			"byteOffset":1506804,
			"target":34962
		},
		{
			"buffer":0,
			"byteLength":67080,
			"byteOffset":1596596,
			"target":34963
		}
	],
	"buffers":[
		{
			"byteLength":1663676,
			"uri":"%D0%BF%D0%B0%D0%B3%D0%BE%D0%B4%D0%B0.bin"
		}
	]
}
